<svg xmlns="http://www.w3.org/2000/svg" data-name="Layer 2" viewBox="0 0 769.92 182.87">
  <path fill="#00efff" d="M296.56 133.43c-3.71 3.99-8.02 7.05-12.93 9.19s-10.58 3.21-16.99 3.21c-4.99 0-9.91-.78-14.75-2.35-4.85-1.57-9.16-3.96-12.93-7.16-3.78-3.21-6.84-7.34-9.19-12.4s-3.53-11.08-3.53-18.06c0-6.41 1.25-11.93 3.74-16.57 2.49-4.63 5.8-8.48 9.94-11.54 4.13-3.06 8.9-5.31 14.32-6.73 5.41-1.42 11.12-2.14 17.1-2.14 5.41 0 10.08.78 14 2.35s7.23 3.49 9.94 5.77c0-9.41-1.43-16.46-4.27-21.16-2.85-4.7-8.34-7.05-16.46-7.05-6.13 0-11.65.93-16.57 2.78s-8.87 3.85-11.86 5.98l-10.47-20.31c3.7-3.28 8.9-6.09 15.6-8.44s14.75-3.53 24.16-3.53c14.54 0 25.44 3.99 32.71 11.97s10.9 20.95 10.9 38.9v66.69h-22.44v-9.41Zm-1.28-37.63c-2.28-2.14-5.56-3.92-9.83-5.34s-8.84-2.14-13.68-2.14c-6.98 0-12.4 1.39-16.25 4.17s-5.77 7.23-5.77 13.36 1.89 10.37 5.66 13.15q5.655 4.17 15.93 4.17c2.56 0 5.09-.35 7.59-1.07 2.49-.71 4.81-1.6 6.95-2.67s4.02-2.31 5.66-3.74c1.64-1.42 2.89-2.78 3.74-4.06V95.81Zm49.38-87.25L369.88 0v155.83h-25.22zm95.98 17.71c7.12 0 13.71 1.28 19.77 3.85s11.26 6.38 15.61 11.44 7.77 11.37 10.26 18.92c2.49 7.56 3.74 16.32 3.74 26.29s-1.25 18.49-3.74 25.97q-3.735 11.22-10.26 18.81c-4.35 5.06-9.55 8.87-15.61 11.44s-12.65 3.85-19.77 3.85-13.89-1.28-19.88-3.85c-5.98-2.56-11.19-6.38-15.6-11.44q-6.63-7.59-10.26-18.81c-2.42-7.48-3.63-16.14-3.63-25.97s1.21-18.74 3.63-26.29 5.84-13.86 10.26-18.92c4.41-5.06 9.62-8.87 15.6-11.44 5.99-2.56 12.61-3.85 19.88-3.85m.1 25.01c-7.66 0-13.62 2.88-17.88 8.63s-6.38 14.67-6.38 26.75 2.13 20.25 6.38 26.21c4.26 5.97 10.22 8.95 17.88 8.95s13.65-2.98 17.98-8.95 6.49-14.7 6.49-26.21c0-12.08-2.16-20.99-6.49-26.75-4.33-5.75-10.32-8.63-17.98-8.63m115.75-25.01c7.12 0 13.71 1.28 19.77 3.85s11.26 6.38 15.6 11.44c4.35 5.06 7.77 11.37 10.26 18.92 2.49 7.56 3.74 16.32 3.74 26.29s-1.25 18.49-3.74 25.97q-3.75 11.22-10.26 18.81c-4.35 5.06-9.55 8.87-15.6 11.44-6.06 2.57-12.65 3.85-19.77 3.85s-13.89-1.28-19.88-3.85c-5.99-2.56-11.19-6.38-15.6-11.44q-6.63-7.59-10.26-18.81c-2.42-7.48-3.63-16.14-3.63-25.97s1.21-18.74 3.63-26.29 5.84-13.86 10.26-18.92 9.62-8.87 15.6-11.44c5.99-2.56 12.61-3.85 19.88-3.85m.11 25.01c-7.66 0-13.62 2.88-17.88 8.63s-6.38 14.67-6.38 26.75 2.13 20.25 6.38 26.21c4.25 5.97 10.22 8.95 17.88 8.95s13.65-2.98 17.98-8.95 6.49-14.7 6.49-26.21c0-12.08-2.16-20.99-6.49-26.75-4.33-5.75-10.32-8.63-17.98-8.63m70.86-24.01h22.42v10.69q1.275-2.775 4.05-5.34c1.85-1.71 4.01-3.17 6.5-4.38s5.22-2.17 8.21-2.89c2.99-.71 6.04-1.07 9.17-1.07 5.97 0 11.55 1.32 16.74 3.95 5.19 2.64 9.7 6.49 13.54 11.54 3.83 5.06 6.82 11.33 8.95 18.81s3.2 16.07 3.2 25.76-1.07 18.74-3.2 26.29-5.04 13.86-8.74 18.92c-3.69 5.06-8.1 8.87-13.21 11.44-5.12 2.57-10.73 3.85-16.83 3.85s-11.69-1.11-15.88-3.31c-4.19-2.21-7.42-5.16-9.7-8.87v41.9l-25.22 8.34zm44.79 93.41c7.8 0 13.76-2.96 17.87-8.87s6.17-14.93 6.17-27.04-2.02-21.16-6.06-27.15-9.75-8.98-17.12-8.98c-5.53 0-10.14 1.92-13.83 5.77s-6.38 8.34-8.08 13.47v34.84c1.98 5.99 4.89 10.47 8.72 13.47 3.83 2.99 7.94 4.49 12.34 4.49Zm61.98 19.25c.25-3.69 1.71-6.77 4.38-9.23s5.99-3.55 9.97-3.28c3.7.25 6.8 1.79 9.33 4.6 2.52 2.82 3.65 6.07 3.4 9.77s-1.82 6.7-4.69 9-6.16 3.33-9.85 3.07c-3.98-.27-7.13-1.74-9.45-4.4s-3.35-5.83-3.09-9.53m10.32-137.7 25.38 1.74-11.48 107.84-17.91-1.23 4.01-108.36ZM179.31 29.15c-1.78-5.96-8.48-11.25-14.54-11.7q-74.355-5.1-147.87 7.08c-5.98 1.02-12.15 6.92-13.35 13.03-5.91 31.01-4.44 61.67 4.4 91.97 1.78 5.96 8.48 11.25 14.54 11.7 14.57 1 29.12 1.44 43.64 1.44l32.07 32.11 28.86-35.03c14.46-1.39 28.89-3.22 43.3-5.61 5.98-1.02 12.15-6.92 13.35-13.03 5.91-31.01 4.44-61.67-4.4-91.97Z" data-name="Layer 1"/>
</svg>
